<svg width="46" height="78" viewBox="0 0 46 78" fill="none" xmlns="http://www.w3.org/2000/svg">
<rect x="12.0264" y="36.6152" width="7.32261" height="40.6072" fill="#7A6ADB"/>
<rect x="26.3242" y="36.6152" width="7.32261" height="40.6072" fill="#7A6ADB"/>
<path fill-rule="evenodd" clip-rule="evenodd" d="M27 45.2729C37.5878 43.3843 45.6254 34.1309 45.6254 23.0002C45.6254 10.5046 35.4957 0.375 23.0002 0.375C10.5046 0.375 0.375 10.5046 0.375 23.0002C0.375 34.1307 8.41241 43.384 19 45.2729V37.4609C12.6577 35.7104 8.00019 29.8992 8.00019 23.0002C8.00019 14.7159 14.7159 8.00019 23.0002 8.00019C31.2845 8.00019 38.0002 14.7159 38.0002 23.0002C38.0002 29.8993 33.3425 35.7106 27 37.461V45.2729Z" fill="#7A6ADB"/>
</svg>
