<svg width="97" height="19" viewBox="0 0 97 19" fill="none" xmlns="http://www.w3.org/2000/svg">
<path d="M0.818492 4.03697H3.0764V7.62141C3.27397 7.42384 3.50917 7.2639 3.782 7.1416C4.06424 7.00989 4.41704 6.94403 4.84039 6.94403C5.29198 6.94403 5.70122 7.03341 6.06813 7.21216C6.43504 7.3815 6.7455 7.62611 6.99952 7.94598C7.26294 8.25644 7.46521 8.62806 7.60633 9.06082C7.74745 9.49359 7.81801 9.96869 7.81801 10.4861C7.81801 10.9848 7.73334 11.4599 7.564 11.9114C7.40406 12.3536 7.15945 12.7393 6.83018 13.0686C6.5009 13.3979 6.08695 13.6613 5.58833 13.8589C5.0897 14.047 4.50641 14.1411 3.83845 14.1411C3.27397 14.1411 2.73301 14.08 2.21557 13.9577C1.70754 13.8354 1.24185 13.666 0.818492 13.4496V4.03697ZM4.19124 8.66569C3.76789 8.66569 3.39627 8.7927 3.0764 9.04671V12.3207C3.17989 12.3677 3.30219 12.4054 3.44331 12.4336C3.58443 12.4618 3.73025 12.4759 3.88078 12.4759C4.17243 12.4759 4.42644 12.4242 4.64283 12.3207C4.85921 12.2172 5.03326 12.0761 5.16497 11.8973C5.29668 11.7186 5.39546 11.5116 5.46132 11.2764C5.52717 11.0412 5.5601 10.7872 5.5601 10.5144C5.5601 9.94987 5.44721 9.503 5.22142 9.17372C5.00503 8.83503 4.66164 8.66569 4.19124 8.66569ZM9.78067 16.9071L10.6838 14.1693L8.18602 7.08515H10.5286L11.7987 12.0102L13.0546 7.08515H15.3267L12.0527 16.9071H9.78067ZM25.6383 7.08515V8.52457H24.6222L24.6081 8.51046C24.7116 8.7927 24.7634 9.06553 24.7634 9.32895C24.7634 9.64882 24.6975 9.94987 24.5658 10.2321C24.4435 10.5144 24.2553 10.7637 24.0013 10.98C23.7567 11.187 23.4462 11.3517 23.0699 11.474C22.703 11.5963 22.275 11.6574 21.7857 11.6574H21.7011C21.6634 11.7233 21.6305 11.7891 21.6023 11.855C21.5835 11.9114 21.5741 11.9773 21.5741 12.0526C21.5741 12.1843 21.6211 12.283 21.7152 12.3489C21.8187 12.4054 21.9457 12.4383 22.0962 12.4477L23.3098 12.5182C24.006 12.5653 24.5611 12.7487 24.975 13.0686C25.3984 13.3791 25.6101 13.8448 25.6101 14.4657C25.6101 14.8985 25.4925 15.2748 25.2573 15.5946C25.0315 15.9239 24.7257 16.1921 24.34 16.399C23.9637 16.6154 23.5356 16.7753 23.0558 16.8788C22.576 16.9917 22.0868 17.0482 21.5882 17.0482C21.193 17.0482 20.8073 17.02 20.431 16.9635C20.0641 16.9071 19.7348 16.8083 19.4432 16.6672C19.1515 16.5354 18.9163 16.3567 18.7376 16.1309C18.5588 15.9051 18.4694 15.6276 18.4694 15.2983C18.4694 15.0819 18.5165 14.8891 18.6106 14.7197C18.7046 14.5598 18.8316 14.4187 18.9916 14.2964C19.1515 14.174 19.335 14.0706 19.5419 13.9859C19.7489 13.9012 19.9606 13.8354 20.177 13.7883C19.763 13.5813 19.5561 13.2662 19.5561 12.8428C19.5561 12.6641 19.589 12.5041 19.6548 12.363C19.7301 12.2219 19.8195 12.0996 19.923 11.9961C20.0265 11.8832 20.1393 11.7891 20.2616 11.7139C20.3934 11.6292 20.5157 11.5633 20.6286 11.5163C20.0265 11.3564 19.5702 11.0835 19.2597 10.6978C18.9586 10.3027 18.8081 9.84639 18.8081 9.32895C18.8081 8.99026 18.8693 8.6798 18.9916 8.39756C19.1233 8.10592 19.3114 7.8519 19.5561 7.63552C19.8101 7.41913 20.1205 7.24979 20.4874 7.12749C20.8638 7.00518 21.2965 6.94403 21.7857 6.94403C21.9927 6.94403 22.1856 6.95815 22.3643 6.98637C22.5525 7.00518 22.7265 7.03811 22.8865 7.08515H25.6383ZM21.1225 14.0282C21.0096 14.1129 20.892 14.2164 20.7697 14.3387C20.6474 14.461 20.5862 14.6209 20.5862 14.8185C20.5862 15.0819 20.6944 15.2748 20.9108 15.3971C21.1366 15.5194 21.4471 15.5805 21.8422 15.5805C22.0492 15.5805 22.2514 15.557 22.449 15.51C22.656 15.4723 22.8394 15.4112 22.9994 15.3265C23.1593 15.2513 23.2863 15.1572 23.3804 15.0443C23.4745 14.9408 23.5215 14.8185 23.5215 14.6774C23.5215 14.508 23.4604 14.3857 23.3381 14.3105C23.2252 14.2352 23.0417 14.1882 22.7877 14.1693L21.1225 14.0282ZM21.7857 10.2744C22.115 10.2744 22.3643 10.1898 22.5337 10.0204C22.703 9.84168 22.7877 9.60178 22.7877 9.30073C22.7877 8.99967 22.703 8.76447 22.5337 8.59513C22.3643 8.41638 22.115 8.327 21.7857 8.327C21.4565 8.327 21.2071 8.41638 21.0378 8.59513C20.8685 8.76447 20.7838 8.99967 20.7838 9.30073C20.7838 9.60178 20.8685 9.84168 21.0378 10.0204C21.2071 10.1898 21.4565 10.2744 21.7857 10.2744ZM33.5455 10.5426C33.5455 11.0506 33.4655 11.5257 33.3056 11.9679C33.1457 12.4006 32.9105 12.7817 32.6 13.1109C32.2895 13.4308 31.9038 13.6848 31.4428 13.873C30.9818 14.0517 30.455 14.1411 29.8623 14.1411C29.2696 14.1411 28.7427 14.0517 28.2817 13.873C27.8208 13.6848 27.435 13.4308 27.1246 13.1109C26.8141 12.7817 26.5789 12.4006 26.419 11.9679C26.259 11.5257 26.1791 11.0506 26.1791 10.5426C26.1791 10.0345 26.259 9.56415 26.419 9.13138C26.5789 8.68921 26.8141 8.30819 27.1246 7.98832C27.435 7.65904 27.8208 7.40502 28.2817 7.22627C28.7427 7.03811 29.2696 6.94403 29.8623 6.94403C30.455 6.94403 30.9818 7.03811 31.4428 7.22627C31.9038 7.40502 32.2895 7.65904 32.6 7.98832C32.9105 8.30819 33.1457 8.68921 33.3056 9.13138C33.4655 9.56415 33.5455 10.0345 33.5455 10.5426ZM31.2876 10.5426C31.2876 10.298 31.2641 10.0628 31.217 9.83698C31.17 9.60178 31.09 9.39481 30.9771 9.21605C30.8736 9.0279 30.7278 8.88207 30.5397 8.77858C30.3609 8.66569 30.1351 8.60924 29.8623 8.60924C29.5895 8.60924 29.359 8.66569 29.1708 8.77858C28.992 8.88207 28.8462 9.0279 28.7333 9.21605C28.6298 9.39481 28.5546 9.60178 28.5075 9.83698C28.4605 10.0628 28.437 10.298 28.437 10.5426C28.437 10.7872 28.4605 11.0271 28.5075 11.2623C28.5546 11.4881 28.6298 11.6951 28.7333 11.8832C28.8462 12.062 28.992 12.2078 29.1708 12.3207C29.359 12.4242 29.5895 12.4759 29.8623 12.4759C30.1351 12.4759 30.3609 12.4242 30.5397 12.3207C30.7278 12.2078 30.8736 12.062 30.9771 11.8832C31.09 11.6951 31.17 11.4881 31.217 11.2623C31.2641 11.0271 31.2876 10.7872 31.2876 10.5426ZM41.6488 10.5426C41.6488 11.0506 41.5689 11.5257 41.4089 11.9679C41.249 12.4006 41.0138 12.7817 40.7033 13.1109C40.3929 13.4308 40.0071 13.6848 39.5462 13.873C39.0852 14.0517 38.5583 14.1411 37.9656 14.1411C37.3729 14.1411 36.8461 14.0517 36.3851 13.873C35.9241 13.6848 35.5384 13.4308 35.2279 13.1109C34.9174 12.7817 34.6822 12.4006 34.5223 11.9679C34.3624 11.5257 34.2824 11.0506 34.2824 10.5426C34.2824 10.0345 34.3624 9.56415 34.5223 9.13138C34.6822 8.68921 34.9174 8.30819 35.2279 7.98832C35.5384 7.65904 35.9241 7.40502 36.3851 7.22627C36.8461 7.03811 37.3729 6.94403 37.9656 6.94403C38.5583 6.94403 39.0852 7.03811 39.5462 7.22627C40.0071 7.40502 40.3929 7.65904 40.7033 7.98832C41.0138 8.30819 41.249 8.68921 41.4089 9.13138C41.5689 9.56415 41.6488 10.0345 41.6488 10.5426ZM39.3909 10.5426C39.3909 10.298 39.3674 10.0628 39.3204 9.83698C39.2733 9.60178 39.1934 9.39481 39.0805 9.21605C38.977 9.0279 38.8312 8.88207 38.643 8.77858C38.4642 8.66569 38.2385 8.60924 37.9656 8.60924C37.6928 8.60924 37.4623 8.66569 37.2741 8.77858C37.0954 8.88207 36.9496 9.0279 36.8367 9.21605C36.7332 9.39481 36.6579 9.60178 36.6109 9.83698C36.5638 10.0628 36.5403 10.298 36.5403 10.5426C36.5403 10.7872 36.5638 11.0271 36.6109 11.2623C36.6579 11.4881 36.7332 11.6951 36.8367 11.8832C36.9496 12.062 37.0954 12.2078 37.2741 12.3207C37.4623 12.4242 37.6928 12.4759 37.9656 12.4759C38.2385 12.4759 38.4642 12.4242 38.643 12.3207C38.8312 12.2078 38.977 12.062 39.0805 11.8832C39.1934 11.6951 39.2733 11.4881 39.3204 11.2623C39.3674 11.0271 39.3909 10.7872 39.3909 10.5426ZM49.4548 14H47.2957V13.1251C47.0793 13.4355 46.7971 13.6848 46.449 13.873C46.1103 14.0517 45.7011 14.1411 45.2213 14.1411C44.8355 14.1411 44.4733 14.0612 44.1346 13.9012C43.7959 13.7319 43.4996 13.4967 43.2456 13.1956C43.001 12.8852 42.8081 12.5135 42.667 12.0808C42.5259 11.648 42.4553 11.1635 42.4553 10.6272C42.4553 10.0251 42.5494 9.49359 42.7375 9.0326C42.9351 8.57161 43.1938 8.18588 43.5137 7.87542C43.843 7.56496 44.224 7.33446 44.6568 7.18394C45.0895 7.024 45.5505 6.94403 46.0397 6.94403C46.2843 6.94403 46.5007 6.96285 46.6889 7.00048C46.8771 7.0287 47.0464 7.06634 47.1969 7.11338V4.03697H49.4548V14ZM46.0397 12.4054C46.5195 12.4054 46.9053 12.2454 47.1969 11.9255V8.75036C46.9899 8.6751 46.7218 8.63746 46.3925 8.63746C45.8281 8.63746 45.4047 8.81151 45.1225 9.15961C44.8496 9.5077 44.7132 9.9828 44.7132 10.5849C44.7132 11.1212 44.8167 11.5586 45.0237 11.8973C45.2401 12.236 45.5788 12.4054 46.0397 12.4054ZM57.4984 14L55.9743 9.58296L54.4502 14H52.3334L50.3719 7.08515H52.531L53.5047 11.2482L54.9159 7.08515H57.0327L58.4439 11.2482L59.4176 7.08515H61.5768L59.6152 14H57.4984ZM66.907 9.0326H66.6389C65.7451 9.0326 65.1148 9.25839 64.7479 9.70997V14H62.49V7.08515H64.6773V8.24233C64.809 7.86601 65.0113 7.56966 65.2841 7.35328C65.557 7.1369 65.9145 7.0287 66.3566 7.0287C66.4883 7.0287 66.5965 7.03811 66.6812 7.05693C66.7753 7.06634 66.8694 7.08515 66.9634 7.11338L66.907 9.0326ZM67.8371 14V7.08515H70.095V14H67.8371ZM67.6959 5.06715C67.6959 4.70964 67.8135 4.40859 68.0487 4.16398C68.2839 3.91937 68.5897 3.79707 68.966 3.79707C69.3423 3.79707 69.6481 3.91937 69.8833 4.16398C70.1185 4.40859 70.2361 4.70964 70.2361 5.06715C70.2361 5.42465 70.1185 5.7257 69.8833 5.97031C69.6481 6.21492 69.3423 6.33722 68.966 6.33722C68.5897 6.33722 68.2839 6.21492 68.0487 5.97031C67.8135 5.7257 67.6959 5.42465 67.6959 5.06715ZM78.2273 7.08515V8.52457H77.2112L77.1971 8.51046C77.3006 8.7927 77.3524 9.06553 77.3524 9.32895C77.3524 9.64882 77.2865 9.94987 77.1548 10.2321C77.0325 10.5144 76.8443 10.7637 76.5903 10.98C76.3457 11.187 76.0352 11.3517 75.6589 11.474C75.292 11.5963 74.864 11.6574 74.3747 11.6574H74.2901C74.2524 11.7233 74.2195 11.7891 74.1913 11.855C74.1725 11.9114 74.1631 11.9773 74.1631 12.0526C74.1631 12.1843 74.2101 12.283 74.3042 12.3489C74.4077 12.4054 74.5347 12.4383 74.6852 12.4477L75.8988 12.5182C76.595 12.5653 77.1501 12.7487 77.564 13.0686C77.9874 13.3791 78.1991 13.8448 78.1991 14.4657C78.1991 14.8985 78.0815 15.2748 77.8463 15.5946C77.6205 15.9239 77.3147 16.1921 76.929 16.399C76.5527 16.6154 76.1246 16.7753 75.6448 16.8788C75.165 16.9917 74.6758 17.0482 74.1772 17.0482C73.782 17.0482 73.3963 17.02 73.02 16.9635C72.6531 16.9071 72.3238 16.8083 72.0322 16.6672C71.7405 16.5354 71.5053 16.3567 71.3266 16.1309C71.1478 15.9051 71.0584 15.6276 71.0584 15.2983C71.0584 15.0819 71.1055 14.8891 71.1996 14.7197C71.2936 14.5598 71.4206 14.4187 71.5806 14.2964C71.7405 14.174 71.924 14.0706 72.1309 13.9859C72.3379 13.9012 72.5496 13.8354 72.766 13.7883C72.352 13.5813 72.1451 13.2662 72.1451 12.8428C72.1451 12.6641 72.178 12.5041 72.2438 12.363C72.3191 12.2219 72.4085 12.0996 72.512 11.9961C72.6155 11.8832 72.7283 11.7891 72.8507 11.7139C72.9824 11.6292 73.1047 11.5633 73.2176 11.5163C72.6155 11.3564 72.1592 11.0835 71.8487 10.6978C71.5477 10.3027 71.3971 9.84639 71.3971 9.32895C71.3971 8.99026 71.4583 8.6798 71.5806 8.39756C71.7123 8.10592 71.9004 7.8519 72.1451 7.63552C72.3991 7.41913 72.7095 7.24979 73.0764 7.12749C73.4528 7.00518 73.8855 6.94403 74.3747 6.94403C74.5817 6.94403 74.7746 6.95815 74.9533 6.98637C75.1415 7.00518 75.3155 7.03811 75.4755 7.08515H78.2273ZM73.7115 14.0282C73.5986 14.1129 73.481 14.2164 73.3587 14.3387C73.2364 14.461 73.1752 14.6209 73.1752 14.8185C73.1752 15.0819 73.2834 15.2748 73.4998 15.3971C73.7256 15.5194 74.0361 15.5805 74.4312 15.5805C74.6382 15.5805 74.8404 15.557 75.038 15.51C75.245 15.4723 75.4284 15.4112 75.5884 15.3265C75.7483 15.2513 75.8753 15.1572 75.9694 15.0443C76.0635 14.9408 76.1105 14.8185 76.1105 14.6774C76.1105 14.508 76.0494 14.3857 75.9271 14.3105C75.8142 14.2352 75.6307 14.1882 75.3767 14.1693L73.7115 14.0282ZM74.3747 10.2744C74.704 10.2744 74.9533 10.1898 75.1227 10.0204C75.292 9.84168 75.3767 9.60178 75.3767 9.30073C75.3767 8.99967 75.292 8.76447 75.1227 8.59513C74.9533 8.41638 74.704 8.327 74.3747 8.327C74.0455 8.327 73.7962 8.41638 73.6268 8.59513C73.4575 8.76447 73.3728 8.99967 73.3728 9.30073C73.3728 9.60178 73.4575 9.84168 73.6268 10.0204C73.7962 10.1898 74.0455 10.2744 74.3747 10.2744ZM79.2479 14V4.03697H81.5058V7.90364C81.7128 7.57437 81.9809 7.33446 82.3102 7.18394C82.6394 7.024 82.9875 6.94403 83.3545 6.94403C83.8154 6.94403 84.2059 7.04282 84.5257 7.24038C84.8456 7.42854 85.1043 7.68256 85.3019 8.00243C85.5089 8.3223 85.6547 8.69391 85.7394 9.11727C85.8334 9.53122 85.8805 9.96869 85.8805 10.4297V14H83.6226V10.3873C83.6226 9.81346 83.5332 9.39481 83.3545 9.13138C83.1757 8.85855 82.9029 8.72214 82.536 8.72214C82.3008 8.72214 82.0938 8.77388 81.915 8.87737C81.7457 8.98086 81.6093 9.10786 81.5058 9.25839V14H79.2479ZM86.7001 7.08515H87.7585V5.27882H90.0164V7.08515H92.0062V8.80681H90.0164V11.5163C90.0164 11.7891 90.0728 12.0055 90.1857 12.1654C90.308 12.316 90.5244 12.3912 90.8349 12.3912C91.0042 12.3912 91.1736 12.3818 91.3429 12.363C91.5217 12.3348 91.691 12.2972 91.8509 12.2501L92.0062 13.8165C91.7804 13.92 91.5028 14 91.1736 14.0564C90.8443 14.1129 90.515 14.1411 90.1857 14.1411C89.7436 14.1411 89.3672 14.0753 89.0568 13.9436C88.7557 13.8024 88.5064 13.619 88.3088 13.3932C88.1207 13.158 87.9796 12.8852 87.8855 12.5747C87.8008 12.2548 87.7585 11.9161 87.7585 11.5586V8.80681H86.7001V7.08515Z" fill="#C1BDDB"/>
</svg>
