<svg width="42" height="33" viewBox="0 0 42 33" fill="none" xmlns="http://www.w3.org/2000/svg">
<path d="M16.7397 11.792H35.7533C35.889 11.792 36 11.9016 36 12.0356V31.5729C36 32.361 35.3529 33 34.5546 33H1.44537C0.647135 33 0 32.361 0 31.5729V7.42709C0 6.63895 0.647135 6 1.44537 6H11.7414C11.8367 6 11.9218 6.05146 11.963 6.13586C13.3716 8.9571 12.9363 8.08344 13.925 10.0643C14.4578 11.1301 15.5361 11.792 16.7397 11.792Z" fill="#9590B5"/>
<path d="M38.7533 8.79203H19.7397C18.5361 8.79203 17.4578 8.13013 16.925 7.06434C16.4357 6.08403 16.2952 5.80282 16.1073 5.42692C15.9156 5.04325 15.6745 4.56092 14.963 3.13586C14.9218 3.05146 14.8367 3 14.7414 3H4.44537C3.64714 3 3 3.63895 3 4.42709V5H12.7414C12.8367 5 12.9218 5.05146 12.963 5.13586C13.6745 6.56096 13.9156 7.04327 14.1074 7.42696C14.2952 7.80284 14.4358 8.08406 14.925 9.06434C15.4578 10.1301 16.5361 10.792 17.7397 10.792H36.7533C36.889 10.792 37 10.9016 37 11.0356V30H37.5546C38.3529 30 39 29.361 39 28.5729V9.03562C39 8.90161 38.889 8.79203 38.7533 8.79203Z" fill="#9590B5"/>
<path d="M41.7533 5.79203H22.7397C21.5361 5.79203 20.4578 5.13013 19.925 4.06434C19.4357 3.08403 19.2952 2.80282 19.1073 2.42692C18.9156 2.04325 18.6745 1.56092 17.963 0.135861C17.9218 0.0514568 17.8367 0 17.7414 0H7.44537C6.64714 0 6 0.638952 6 1.42709V2H15.7414C15.8367 2 15.9218 2.05146 15.963 2.13586C16.6745 3.56096 16.9156 4.04327 17.1074 4.42696C17.2952 4.80284 17.4358 5.08406 17.925 6.06434C18.4578 7.13013 19.5361 7.79203 20.7397 7.79203H39.7533C39.889 7.79203 40 7.90161 40 8.03562V27H40.5546C41.3529 27 42 26.361 42 25.5729V6.03562C42 5.90161 41.889 5.79203 41.7533 5.79203Z" fill="#9590B5"/>
</svg>
