<svg width="10" height="10" viewBox="0 0 10 10" fill="none" xmlns="http://www.w3.org/2000/svg">
<path d="M5 10C2.24297 10 0 7.75703 0 5C0 2.24297 2.24297 0 5 0C7.75703 0 10 2.24297 10 5C10 7.75703 7.75703 10 5 10ZM5 0.714264C2.63687 0.714264 0.714264 2.63687 0.714264 5C0.714264 7.36313 2.63687 9.28574 5 9.28574C7.36313 9.28574 9.28574 7.36313 9.28574 5C9.28574 2.63687 7.36313 0.714264 5 0.714264Z" fill="white"/>
<path d="M6.78601 7.14287C6.69461 7.14287 6.60321 7.108 6.53347 7.03819L2.96208 3.46679C2.82254 3.32725 2.82254 3.10127 2.96208 2.96181C3.10154 2.82234 3.3276 2.82226 3.46707 2.96181L7.03846 6.5332C7.17801 6.67274 7.17801 6.89873 7.03846 7.03819C6.96873 7.108 6.87741 7.14287 6.78601 7.14287Z" fill="white"/>
<path d="M3.21453 7.14289C3.12313 7.14289 3.03181 7.10803 2.96208 7.03822C2.82254 6.89875 2.82254 6.6727 2.96208 6.53323L6.53347 2.96183C6.67302 2.82229 6.899 2.82229 7.03846 2.96183C7.17793 3.1013 7.17801 3.32736 7.03846 3.46682L3.46707 7.03822C3.39734 7.10803 3.30593 7.14289 3.21453 7.14289Z" fill="white"/>
</svg>
