<svg width="20" height="20" viewBox="0 0 20 20" fill="none" xmlns="http://www.w3.org/2000/svg">
<g clip-path="url(#clip0)">
<path d="M1.66667 18.3335V4.16681H0V19.1668C0 19.3878 0.0877974 19.5998 0.244078 19.7561C0.400358 19.9123 0.61232 20.0001 0.833333 20.0001H20V18.3335H1.66667Z" fill="#9590B5"/>
<path d="M7.50065 11.6665C7.50065 11.4455 7.41285 11.2335 7.25657 11.0773C7.10029 10.921 6.88833 10.8332 6.66732 10.8332H4.16732C3.9463 10.8332 3.73434 10.921 3.57806 11.0773C3.42178 11.2335 3.33398 11.4455 3.33398 11.6665V17.4998H7.50065V11.6665Z" fill="#9590B5"/>
<path d="M13.3327 8.33333C13.3327 8.11232 13.2449 7.90036 13.0886 7.74408C12.9323 7.5878 12.7204 7.5 12.4993 7.5H9.99935C9.77833 7.5 9.56637 7.5878 9.41009 7.74408C9.25381 7.90036 9.16602 8.11232 9.16602 8.33333V17.5H13.3327V8.33333Z" fill="#9590B5"/>
<path d="M19.1667 5.00014C19.1667 4.77913 19.0789 4.56717 18.9226 4.41089C18.7663 4.25461 18.5543 4.16681 18.3333 4.16681H15.8333C15.6123 4.16681 15.4004 4.25461 15.2441 4.41089C15.0878 4.56717 15 4.77913 15 5.00014V17.5001H19.1667V5.00014Z" fill="#9590B5"/>
</g>
<defs>
<clipPath id="clip0">
<rect width="20" height="20" fill="white"/>
</clipPath>
</defs>
</svg>
