<svg width="12" height="12" viewBox="0 0 12 12" fill="none" xmlns="http://www.w3.org/2000/svg">
<path d="M6 0C2.685 0 0 2.75474 0 6.15226C0 8.871 1.719 11.1765 4.1025 11.9894C4.4025 12.0473 4.5125 11.8569 4.5125 11.6936C4.5125 11.5475 4.5075 11.1604 4.505 10.6475C2.836 11.0184 2.484 9.82211 2.484 9.82211C2.211 9.11204 1.8165 8.92213 1.8165 8.92213C1.273 8.54074 1.8585 8.54857 1.8585 8.54857C2.461 8.59135 2.7775 9.18247 2.7775 9.18247C3.3125 10.1232 4.182 9.85133 4.525 9.69429C4.579 9.29621 4.7335 9.02543 4.905 8.87152C3.5725 8.71761 2.172 8.18857 2.172 5.83139C2.172 5.15992 2.4045 4.61106 2.7895 4.18063C2.722 4.02516 2.5195 3.3996 2.842 2.55231C2.842 2.55231 3.3445 2.38744 4.492 3.18308C4.972 3.04639 5.482 2.97856 5.992 2.97543C6.502 2.97856 7.012 3.04639 7.492 3.18308C8.632 2.38744 9.1345 2.55231 9.1345 2.55231C9.457 3.3996 9.2545 4.02516 9.1945 4.18063C9.577 4.61106 9.8095 5.15992 9.8095 5.83139C9.8095 8.19483 8.407 8.715 7.072 8.8663C7.282 9.05099 7.477 9.42821 7.477 10.0047C7.477 10.828 7.4695 11.4896 7.4695 11.6894C7.4695 11.8506 7.5745 12.0431 7.882 11.9816C10.2825 11.1739 12 8.86682 12 6.15226C12 2.75474 9.3135 0 6 0Z" fill="#9590B5"/>
</svg>
