<svg width="74" height="20" viewBox="0 0 74 20" fill="none" xmlns="http://www.w3.org/2000/svg">
<path d="M7.28176 7.08515V8.52457H6.2657L6.25159 8.51046C6.35507 8.7927 6.40682 9.06553 6.40682 9.32895C6.40682 9.64882 6.34096 9.94987 6.20925 10.2321C6.08695 10.5144 5.89879 10.7637 5.64477 10.98C5.40017 11.187 5.0897 11.3517 4.71339 11.474C4.34648 11.5963 3.91841 11.6574 3.4292 11.6574H3.34453C3.3069 11.7233 3.27397 11.7891 3.24574 11.855C3.22693 11.9114 3.21752 11.9773 3.21752 12.0526C3.21752 12.1843 3.26456 12.283 3.35864 12.3489C3.46213 12.4054 3.58914 12.4383 3.73966 12.4477L4.95329 12.5182C5.64948 12.5653 6.20455 12.7487 6.6185 13.0686C7.04185 13.3791 7.25353 13.8448 7.25353 14.4657C7.25353 14.8985 7.13593 15.2748 6.90074 15.5946C6.67495 15.9239 6.36919 16.1921 5.98346 16.399C5.60714 16.6154 5.17908 16.7753 4.69927 16.8788C4.21947 16.9917 3.73025 17.0482 3.23163 17.0482C2.8365 17.0482 2.45077 17.02 2.07445 16.9635C1.70754 16.9071 1.37827 16.8083 1.08662 16.6672C0.794972 16.5354 0.559773 16.3567 0.381022 16.1309C0.202271 15.9051 0.112895 15.6276 0.112895 15.2983C0.112895 15.0819 0.159935 14.8891 0.254015 14.7197C0.348094 14.5598 0.475102 14.4187 0.635037 14.2964C0.794972 14.174 0.978427 14.0706 1.1854 13.9859C1.39238 13.9012 1.60406 13.8354 1.82044 13.7883C1.40649 13.5813 1.19951 13.2662 1.19951 12.8428C1.19951 12.6641 1.23244 12.5041 1.2983 12.363C1.37356 12.2219 1.46294 12.0996 1.56642 11.9961C1.66991 11.8832 1.78281 11.7891 1.90511 11.7139C2.03682 11.6292 2.15913 11.5633 2.27202 11.5163C1.66991 11.3564 1.21363 11.0835 0.903164 10.6978C0.602109 10.3027 0.451582 9.84639 0.451582 9.32895C0.451582 8.99026 0.512734 8.6798 0.635037 8.39756C0.766748 8.10592 0.954908 7.8519 1.19951 7.63552C1.45353 7.41913 1.76399 7.24979 2.1309 7.12749C2.50722 7.00518 2.93999 6.94403 3.4292 6.94403C3.63618 6.94403 3.82904 6.95815 4.00779 6.98637C4.19595 7.00518 4.37 7.03811 4.52993 7.08515H7.28176ZM2.76594 14.0282C2.65304 14.1129 2.53544 14.2164 2.41314 14.3387C2.29084 14.461 2.22969 14.6209 2.22969 14.8185C2.22969 15.0819 2.33788 15.2748 2.55426 15.3971C2.78005 15.5194 3.09051 15.5805 3.48565 15.5805C3.69262 15.5805 3.89489 15.557 4.09246 15.51C4.29944 15.4723 4.48289 15.4112 4.64283 15.3265C4.80276 15.2513 4.92977 15.1572 5.02385 15.0443C5.11793 14.9408 5.16497 14.8185 5.16497 14.6774C5.16497 14.508 5.10382 14.3857 4.98151 14.3105C4.86862 14.2352 4.68516 14.1882 4.43115 14.1693L2.76594 14.0282ZM3.4292 10.2744C3.75848 10.2744 4.00779 10.1898 4.17713 10.0204C4.34648 9.84168 4.43115 9.60178 4.43115 9.30073C4.43115 8.99967 4.34648 8.76447 4.17713 8.59513C4.00779 8.41638 3.75848 8.327 3.4292 8.327C3.09992 8.327 2.85061 8.41638 2.68127 8.59513C2.51192 8.76447 2.42725 8.99967 2.42725 9.30073C2.42725 9.60178 2.51192 9.84168 2.68127 10.0204C2.85061 10.1898 3.09992 10.2744 3.4292 10.2744ZM15.189 10.5426C15.189 11.0506 15.109 11.5257 14.9491 11.9679C14.7891 12.4006 14.5539 12.7817 14.2435 13.1109C13.933 13.4308 13.5473 13.6848 13.0863 13.873C12.6253 14.0517 12.0984 14.1411 11.5057 14.1411C10.913 14.1411 10.3862 14.0517 9.92521 13.873C9.46422 13.6848 9.07849 13.4308 8.76803 13.1109C8.45757 12.7817 8.22237 12.4006 8.06243 11.9679C7.9025 11.5257 7.82253 11.0506 7.82253 10.5426C7.82253 10.0345 7.9025 9.56415 8.06243 9.13138C8.22237 8.68921 8.45757 8.30819 8.76803 7.98832C9.07849 7.65904 9.46422 7.40502 9.92521 7.22627C10.3862 7.03811 10.913 6.94403 11.5057 6.94403C12.0984 6.94403 12.6253 7.03811 13.0863 7.22627C13.5473 7.40502 13.933 7.65904 14.2435 7.98832C14.5539 8.30819 14.7891 8.68921 14.9491 9.13138C15.109 9.56415 15.189 10.0345 15.189 10.5426ZM12.9311 10.5426C12.9311 10.298 12.9075 10.0628 12.8605 9.83698C12.8135 9.60178 12.7335 9.39481 12.6206 9.21605C12.5171 9.0279 12.3713 8.88207 12.1831 8.77858C12.0044 8.66569 11.7786 8.60924 11.5057 8.60924C11.2329 8.60924 11.0024 8.66569 10.8143 8.77858C10.6355 8.88207 10.4897 9.0279 10.3768 9.21605C10.2733 9.39481 10.198 9.60178 10.151 9.83698C10.104 10.0628 10.0804 10.298 10.0804 10.5426C10.0804 10.7872 10.104 11.0271 10.151 11.2623C10.198 11.4881 10.2733 11.6951 10.3768 11.8832C10.4897 12.062 10.6355 12.2078 10.8143 12.3207C11.0024 12.4242 11.2329 12.4759 11.5057 12.4759C11.7786 12.4759 12.0044 12.4242 12.1831 12.3207C12.3713 12.2078 12.5171 12.062 12.6206 11.8832C12.7335 11.6951 12.8135 11.4881 12.8605 11.2623C12.9075 11.0271 12.9311 10.7872 12.9311 10.5426ZM23.2923 10.5426C23.2923 11.0506 23.2123 11.5257 23.0524 11.9679C22.8925 12.4006 22.6573 12.7817 22.3468 13.1109C22.0363 13.4308 21.6506 13.6848 21.1896 13.873C20.7286 14.0517 20.2018 14.1411 19.6091 14.1411C19.0164 14.1411 18.4895 14.0517 18.0285 13.873C17.5676 13.6848 17.1818 13.4308 16.8714 13.1109C16.5609 12.7817 16.3257 12.4006 16.1658 11.9679C16.0058 11.5257 15.9259 11.0506 15.9259 10.5426C15.9259 10.0345 16.0058 9.56415 16.1658 9.13138C16.3257 8.68921 16.5609 8.30819 16.8714 7.98832C17.1818 7.65904 17.5676 7.40502 18.0285 7.22627C18.4895 7.03811 19.0164 6.94403 19.6091 6.94403C20.2018 6.94403 20.7286 7.03811 21.1896 7.22627C21.6506 7.40502 22.0363 7.65904 22.3468 7.98832C22.6573 8.30819 22.8925 8.68921 23.0524 9.13138C23.2123 9.56415 23.2923 10.0345 23.2923 10.5426ZM21.0344 10.5426C21.0344 10.298 21.0109 10.0628 20.9638 9.83698C20.9168 9.60178 20.8368 9.39481 20.7239 9.21605C20.6204 9.0279 20.4746 8.88207 20.2865 8.77858C20.1077 8.66569 19.8819 8.60924 19.6091 8.60924C19.3363 8.60924 19.1058 8.66569 18.9176 8.77858C18.7388 8.88207 18.593 9.0279 18.4801 9.21605C18.3766 9.39481 18.3014 9.60178 18.2543 9.83698C18.2073 10.0628 18.1838 10.298 18.1838 10.5426C18.1838 10.7872 18.2073 11.0271 18.2543 11.2623C18.3014 11.4881 18.3766 11.6951 18.4801 11.8832C18.593 12.062 18.7388 12.2078 18.9176 12.3207C19.1058 12.4242 19.3363 12.4759 19.6091 12.4759C19.8819 12.4759 20.1077 12.4242 20.2865 12.3207C20.4746 12.2078 20.6204 12.062 20.7239 11.8832C20.8368 11.6951 20.9168 11.4881 20.9638 11.2623C21.0109 11.0271 21.0344 10.7872 21.0344 10.5426ZM31.0983 14H28.9392V13.1251C28.7228 13.4355 28.4405 13.6848 28.0924 13.873C27.7538 14.0517 27.3445 14.1411 26.8647 14.1411C26.479 14.1411 26.1168 14.0612 25.7781 13.9012C25.4394 13.7319 25.1431 13.4967 24.889 13.1956C24.6444 12.8852 24.4516 12.5135 24.3105 12.0808C24.1693 11.648 24.0988 11.1635 24.0988 10.6272C24.0988 10.0251 24.1929 9.49359 24.381 9.0326C24.5786 8.57161 24.8373 8.18588 25.1572 7.87542C25.4864 7.56496 25.8675 7.33446 26.3002 7.18394C26.733 7.024 27.194 6.94403 27.6832 6.94403C27.9278 6.94403 28.1442 6.96285 28.3324 7.00048C28.5205 7.0287 28.6899 7.06634 28.8404 7.11338V4.03697H31.0983V14ZM27.6832 12.4054C28.163 12.4054 28.5487 12.2454 28.8404 11.9255V8.75036C28.6334 8.6751 28.3653 8.63746 28.036 8.63746C27.4715 8.63746 27.0482 8.81151 26.7659 9.15961C26.4931 9.5077 26.3567 9.9828 26.3567 10.5849C26.3567 11.1212 26.4602 11.5586 26.6671 11.8973C26.8835 12.236 27.2222 12.4054 27.6832 12.4054ZM39.1419 14L37.6178 9.58296L36.0937 14H33.9769L32.0153 7.08515H34.1745L35.1482 11.2482L36.5594 7.08515H38.6762L40.0874 11.2482L41.0611 7.08515H43.2202L41.2587 14H39.1419ZM48.5505 9.0326H48.2823C47.3886 9.0326 46.7582 9.25839 46.3913 9.70997V14H44.1334V7.08515H46.3208V8.24233C46.4525 7.86601 46.6547 7.56966 46.9276 7.35328C47.2004 7.1369 47.5579 7.0287 48.0001 7.0287C48.1318 7.0287 48.24 7.03811 48.3247 7.05693C48.4187 7.06634 48.5128 7.08515 48.6069 7.11338L48.5505 9.0326ZM49.4805 14V7.08515H51.7384V14H49.4805ZM49.3394 5.06715C49.3394 4.70964 49.457 4.40859 49.6922 4.16398C49.9274 3.91937 50.2332 3.79707 50.6095 3.79707C50.9858 3.79707 51.2916 3.91937 51.5268 4.16398C51.7619 4.40859 51.8795 4.70964 51.8795 5.06715C51.8795 5.42465 51.7619 5.7257 51.5268 5.97031C51.2916 6.21492 50.9858 6.33722 50.6095 6.33722C50.2332 6.33722 49.9274 6.21492 49.6922 5.97031C49.457 5.7257 49.3394 5.42465 49.3394 5.06715ZM59.8708 7.08515V8.52457H58.8547L58.8406 8.51046C58.9441 8.7927 58.9958 9.06553 58.9958 9.32895C58.9958 9.64882 58.93 9.94987 58.7983 10.2321C58.676 10.5144 58.4878 10.7637 58.2338 10.98C57.9892 11.187 57.6787 11.3517 57.3024 11.474C56.9355 11.5963 56.5074 11.6574 56.0182 11.6574H55.9335C55.8959 11.7233 55.863 11.7891 55.8347 11.855C55.8159 11.9114 55.8065 11.9773 55.8065 12.0526C55.8065 12.1843 55.8536 12.283 55.9476 12.3489C56.0511 12.4054 56.1781 12.4383 56.3287 12.4477L57.5423 12.5182C58.2385 12.5653 58.7936 12.7487 59.2075 13.0686C59.6309 13.3791 59.8425 13.8448 59.8425 14.4657C59.8425 14.8985 59.7249 15.2748 59.4897 15.5946C59.2639 15.9239 58.9582 16.1921 58.5725 16.399C58.1961 16.6154 57.7681 16.7753 57.2883 16.8788C56.8085 16.9917 56.3193 17.0482 55.8206 17.0482C55.4255 17.0482 55.0398 17.02 54.6635 16.9635C54.2965 16.9071 53.9673 16.8083 53.6756 16.6672C53.384 16.5354 53.1488 16.3567 52.97 16.1309C52.7913 15.9051 52.7019 15.6276 52.7019 15.2983C52.7019 15.0819 52.7489 14.8891 52.843 14.7197C52.9371 14.5598 53.0641 14.4187 53.224 14.2964C53.384 14.174 53.5674 14.0706 53.7744 13.9859C53.9814 13.9012 54.1931 13.8354 54.4094 13.7883C53.9955 13.5813 53.7885 13.2662 53.7885 12.8428C53.7885 12.6641 53.8214 12.5041 53.8873 12.363C53.9626 12.2219 54.0519 12.0996 54.1554 11.9961C54.2589 11.8832 54.3718 11.7891 54.4941 11.7139C54.6258 11.6292 54.7481 11.5633 54.861 11.5163C54.2589 11.3564 53.8026 11.0835 53.4922 10.6978C53.1911 10.3027 53.0406 9.84639 53.0406 9.32895C53.0406 8.99026 53.1017 8.6798 53.224 8.39756C53.3558 8.10592 53.5439 7.8519 53.7885 7.63552C54.0425 7.41913 54.353 7.24979 54.7199 7.12749C55.0962 7.00518 55.529 6.94403 56.0182 6.94403C56.2252 6.94403 56.418 6.95815 56.5968 6.98637C56.785 7.00518 56.959 7.03811 57.1189 7.08515H59.8708ZM55.3549 14.0282C55.242 14.1129 55.1244 14.2164 55.0021 14.3387C54.8798 14.461 54.8187 14.6209 54.8187 14.8185C54.8187 15.0819 54.9269 15.2748 55.1433 15.3971C55.3691 15.5194 55.6795 15.5805 56.0747 15.5805C56.2816 15.5805 56.4839 15.557 56.6815 15.51C56.8884 15.4723 57.0719 15.4112 57.2318 15.3265C57.3918 15.2513 57.5188 15.1572 57.6129 15.0443C57.7069 14.9408 57.754 14.8185 57.754 14.6774C57.754 14.508 57.6928 14.3857 57.5705 14.3105C57.4576 14.2352 57.2742 14.1882 57.0202 14.1693L55.3549 14.0282ZM56.0182 10.2744C56.3475 10.2744 56.5968 10.1898 56.7661 10.0204C56.9355 9.84168 57.0202 9.60178 57.0202 9.30073C57.0202 8.99967 56.9355 8.76447 56.7661 8.59513C56.5968 8.41638 56.3475 8.327 56.0182 8.327C55.6889 8.327 55.4396 8.41638 55.2703 8.59513C55.1009 8.76447 55.0163 8.99967 55.0163 9.30073C55.0163 9.60178 55.1009 9.84168 55.2703 10.0204C55.4396 10.1898 55.6889 10.2744 56.0182 10.2744ZM60.8913 14V4.03697H63.1492V7.90364C63.3562 7.57437 63.6244 7.33446 63.9536 7.18394C64.2829 7.024 64.631 6.94403 64.9979 6.94403C65.4589 6.94403 65.8493 7.04282 66.1692 7.24038C66.4891 7.42854 66.7478 7.68256 66.9454 8.00243C67.1523 8.3223 67.2982 8.69391 67.3828 9.11727C67.4769 9.53122 67.5239 9.96869 67.5239 10.4297V14H65.266V10.3873C65.266 9.81346 65.1767 9.39481 64.9979 9.13138C64.8192 8.85855 64.5463 8.72214 64.1794 8.72214C63.9442 8.72214 63.7372 8.77388 63.5585 8.87737C63.3892 8.98086 63.2527 9.10786 63.1492 9.25839V14H60.8913ZM68.3435 7.08515H69.4019V5.27882H71.6598V7.08515H73.6496V8.80681H71.6598V11.5163C71.6598 11.7891 71.7163 12.0055 71.8292 12.1654C71.9515 12.316 72.1679 12.3912 72.4783 12.3912C72.6477 12.3912 72.817 12.3818 72.9864 12.363C73.1651 12.3348 73.3345 12.2972 73.4944 12.2501L73.6496 13.8165C73.4238 13.92 73.1463 14 72.817 14.0564C72.4877 14.1129 72.1585 14.1411 71.8292 14.1411C71.387 14.1411 71.0107 14.0753 70.7002 13.9436C70.3992 13.8024 70.1499 13.619 69.9523 13.3932C69.7641 13.158 69.623 12.8852 69.5289 12.5747C69.4443 12.2548 69.4019 11.9161 69.4019 11.5586V8.80681H68.3435V7.08515Z" fill="#C1BDDB"/>
</svg>
