<?xml version="1.0" encoding="UTF-8" standalone="no"?>
<!DOCTYPE svg PUBLIC "-//W3C//DTD SVG 1.1//EN" "http://www.w3.org/Graphics/SVG/1.1/DTD/svg11.dtd">
<svg width="172" height="242" viewBox="740 65 172 242" version="1.1" xmlns="http://www.w3.org/2000/svg" xmlns:xlink="http://www.w3.org/1999/xlink" xml:space="preserve" xmlns:serif="http://www.serif.com/" style="fill-rule:evenodd;clip-rule:evenodd;stroke-linejoin:round;stroke-miterlimit:2;">
    <g id="Layer1" transform="matrix(1,0,0,1,544.204,274.15)">
        
        <g id="Logo" transform="matrix(1,0,0,1,-25,22)">
            <g transform="matrix(1,0,0,1,92.7997,-225.639)">
                <text x="215.214px" y="200.126px" style="font-family:'Seravek-Bold', 'Seravek', sans-serif;font-weight:700;font-size:58.333px;fill:#c1bddb;">0</text>
            </g>
            <g transform="matrix(1,0,0,1,52.7888,-229.343)">
                <text x="215.214px" y="200.126px" style="font-family:'Seravek-Bold', 'Seravek', sans-serif;font-weight:700;font-size:58.333px;fill:#c1bddb;">1</text>
            </g>
            <g transform="matrix(1,0,0,1,104.661,-257.021)">
                <text x="215.214px" y="182.476px" style="font-family:'Seravek-Bold', 'Seravek', sans-serif;font-weight:700;font-size:33.333px;fill:#c1bddb;">1</text>
            </g>
            <g transform="matrix(1,0,0,1,63.246,-274.874)">
                <text x="215.214px" y="200.126px" style="font-family:'Seravek-Bold', 'Seravek', sans-serif;font-weight:700;font-size:58.333px;fill:#c1bddb;">0</text>
            </g>
            <g transform="matrix(1,0,0,1,86.8135,-304.552)">
                <text x="215.214px" y="182.476px" style="font-family:'Seravek-Bold', 'Seravek', sans-serif;font-weight:700;font-size:33.333px;fill:#c1bddb;">0</text>
            </g>
            <g transform="matrix(1,0,0,1,78.467,-370.749)">
                <text x="215.214px" y="176.592px" style="font-family:'Seravek-Bold', 'Seravek', sans-serif;font-weight:700;font-size:25px;fill:#c1bddb;">0</text>
            </g>
            <g transform="matrix(1,0,0,1,92.9291,-390.046)">
                <text x="215.214px" y="173.651px" style="font-family:'Seravek-Bold', 'Seravek', sans-serif;font-weight:700;font-size:20.833px;fill:#c1bddb;">0</text>
            </g>
            <g transform="matrix(0.454102,0,0,0.451344,306.143,-102.805)">
                <g transform="matrix(1,0,0,1,-252.911,-252.91)">
                    <path d="M440.636,467.323C440.636,488.549 423.376,505.82 402.145,505.82L103.687,505.82C82.441,505.82 65.184,488.549 65.184,467.323C65.184,465.265 65.565,463.22 66.298,461.3L169.677,190.374C169.713,189.945 169.775,189.514 169.828,189.091L169.828,33.848L157.613,33.848C148.262,33.848 140.696,26.27 140.696,16.923C140.697,7.578 148.263,0 157.614,0L186.745,0C196.096,0 203.676,7.578 203.676,16.923L203.676,190.398C203.676,191.374 203.591,192.337 203.428,193.297C203.428,195.363 202.931,198.141 202.187,200.059L126.483,398.445L378.067,397.754L300.114,200.24C299.417,198.484 299.026,196.629 298.943,194.752L298.801,193.73C298.731,193.062 298.695,192.397 298.695,191.732L298.695,16.923C298.695,7.578 306.26,0 315.612,0L345.508,0C354.859,0 362.424,7.578 362.424,16.923C362.424,26.271 354.859,33.848 345.508,33.848L332.522,33.848L332.522,190.205L439.448,461.11C440.234,463.097 440.636,465.195 440.636,467.323Z" style="fill:#c1bddb;fill-rule:nonzero;"/>
                </g>
            </g>
        </g>
    </g>
</svg>
