<svg width="37" height="27" viewBox="0 0 37 27" fill="none" xmlns="http://www.w3.org/2000/svg">
    <g clip-path="url(#clip0)">
        <path d="M34.4581 6.60822H2.36017C1.05637 6.60822 0 5.55185 0 4.24811C0 2.94438 1.05637 1.88794 2.36017 1.88794H34.4581C35.7618 1.88794 36.8182 2.9443 36.8182 4.24811C36.8182 5.55192 35.7618 6.60822 34.4581 6.60822Z" fill="#7A6ADB"/>
        <path d="M21.2413 15.0104H2.36017C1.05637 15.0104 0 13.9539 0 12.6502C0 11.3465 1.05637 10.29 2.36017 10.29H21.2413C22.545 10.29 23.6015 11.3464 23.6015 12.6502C23.6015 13.954 22.545 15.0104 21.2413 15.0104Z" fill="#7A6ADB"/>
        <path d="M34.4606 15.0106H30.6844C29.3807 15.0106 28.3242 13.9543 28.3242 12.6504C28.3242 11.3466 29.3806 10.2903 30.6844 10.2903H34.4606C35.7644 10.2903 36.8207 11.3466 36.8207 12.6504C36.8207 13.9543 35.7644 15.0106 34.4606 15.0106Z" fill="#7A6ADB"/>
        <path d="M34.4581 23.4127H2.36017C1.05637 23.4127 0 22.3563 0 21.0526C0 19.7488 1.05637 18.6924 2.36017 18.6924H34.4581C35.7618 18.6924 36.8182 19.7487 36.8182 21.0526C36.8182 22.3563 35.7618 23.4127 34.4581 23.4127Z" fill="#7A6ADB"/>
    </g>
    <defs>
        <clipPath id="clip0">
            <rect width="36.8182" height="27" fill="white"/>
        </clipPath>
    </defs>
</svg>
