<svg width="47" height="48" viewBox="0 0 47 48" fill="none" xmlns="http://www.w3.org/2000/svg">
<g clip-path="url(#clip0)">
<path d="M45.1916 29.172L13.3597 34.1188C12.9384 34.183 12.5093 34.1057 12.2206 33.939C12.0804 33.8583 11.9734 33.7563 11.9166 33.6389L5.93995 20.8621C5.91288 20.8026 5.9 20.7435 5.90019 20.6851L5.89746 21.6416C5.89727 21.6994 5.91015 21.759 5.93722 21.818L11.9139 34.5948C11.9707 34.7122 12.0777 34.8142 12.2179 34.8955C12.5065 35.0616 12.9356 35.1389 13.3571 35.0753L45.1889 30.1285C45.7104 30.0489 46.055 29.778 46.0558 29.4825L46.0585 28.5265C46.0578 28.8222 45.7131 29.0931 45.1916 29.172Z" fill="#FEBB61"/>
<path d="M39.7322 15.2627C39.8721 15.3434 39.9784 15.446 40.0328 15.5648L46.017 28.346C46.1907 28.7049 45.8193 29.077 45.1928 29.1721L13.3609 34.1188C12.9395 34.1827 12.5103 34.1056 12.2219 33.939C12.0816 33.858 11.9746 33.7561 11.9179 33.6387L5.94113 20.8617C5.77466 20.4986 6.14604 20.1266 6.77263 20.0315L38.5968 15.0893C39.0135 15.0222 39.4441 15.0964 39.7322 15.2627Z" fill="#FFDD94"/>
<path d="M44.3357 25.4518L15.8293 35.0081C15.3621 35.1633 14.7842 35.11 14.4142 34.8969C14.3416 34.8546 14.277 34.8065 14.2231 34.7526L2.73736 23.3034C2.63105 23.1963 2.58048 23.0794 2.58085 22.9644L2.57813 23.9208C2.57784 24.0359 2.62832 24.1528 2.73463 24.2593L14.2204 35.7091C14.2743 35.7629 14.3389 35.811 14.4115 35.8528C14.7815 36.0665 15.3595 36.1197 15.8265 35.9639L44.333 26.4082C44.7074 26.2834 44.917 26.056 44.9177 25.8224L44.9204 24.8658C44.9197 25.1001 44.7101 25.3275 44.3357 25.4518Z" fill="#ED5D71"/>
<path d="M33.0962 12.9289C33.1667 12.9697 33.2289 13.0164 33.2811 13.0684L44.7667 24.5267C45.0894 24.851 44.8978 25.266 44.3388 25.4521L15.8324 35.008C15.3652 35.1633 14.7873 35.1103 14.4173 34.8967C14.3448 34.8548 14.2801 34.8067 14.2262 34.7528L2.74046 23.3033C2.41777 22.979 2.60934 22.564 3.17558 22.3736L31.6748 12.822C32.1435 12.666 32.7291 12.717 33.0962 12.9289Z" fill="#FE91AB"/>
<path d="M42.7445 21.6255L42.7329 22.5751C42.7329 22.7515 42.6273 22.9274 42.3927 23.0562L19.1558 36.569C18.6867 36.8273 17.9477 36.8273 17.4902 36.569L1.29129 27.22C1.05667 27.0797 0.939453 26.9039 0.939453 26.7395L0.951203 25.7778C0.951203 25.9537 1.05667 26.1296 1.29129 26.2584L17.4902 35.6074C17.9477 35.8771 18.6983 35.8771 19.1558 35.6074L42.4044 22.0945C42.6273 21.9657 42.7329 21.8013 42.7445 21.6255Z" fill="#B4BED7"/>
<path d="M42.3956 21.1403C42.8524 21.404 42.8547 21.8365 42.401 22.1002L19.1569 35.6082C18.6955 35.8763 17.9492 35.8762 17.4924 35.6124L1.2935 26.2599C0.82915 25.9919 0.833944 25.564 1.29538 25.2958L24.5395 11.7878C24.9932 11.5241 25.7323 11.5197 26.1967 11.7878L42.3956 21.1403Z" fill="#E3E7F0"/>
<path d="M23.3809 14.7087L24.6279 13.9832L38.1982 21.8164L36.949 22.5423L23.3809 14.7087Z" fill="#96D696"/>
<path d="M20.7363 16.2467L21.9834 15.5212L35.5536 23.3544L34.3045 24.0804L20.7363 16.2467Z" fill="#96D696"/>
<path d="M18.0928 17.7851L19.3397 17.0596L32.91 24.8929L31.6609 25.6188L18.0928 17.7851Z" fill="#D3DBEA"/>
<path d="M15.4492 19.3234L16.6963 18.5979L30.2665 26.4311L29.0174 27.157L15.4492 19.3234Z" fill="#D3DBEA"/>
<path d="M12.8047 20.8618L14.0518 20.1362L27.622 27.9695L26.3729 28.6955L12.8047 20.8618Z" fill="#D3DBEA"/>
<path d="M10.1611 22.3999L11.4082 21.6743L18.5029 25.7696L17.2537 26.4955L10.1611 22.3999Z" fill="#D3DBEA"/>
<path d="M32.296 13.6144C31.7408 13.2939 30.8405 13.2939 30.2888 13.6144L29.8258 13.8837L29.9932 13.9742L30.451 13.708C30.9141 13.439 31.6702 13.4399 32.1349 13.708C32.601 13.9774 32.605 14.4152 32.1418 14.6842L26.9558 17.6983C26.6712 17.8635 26.205 17.8635 25.9171 17.6973C25.6308 17.5321 25.6306 17.2627 25.9153 17.0974L29.963 14.7452L29.7993 14.6507L25.7516 17.0029C25.3769 17.2205 25.3805 17.5744 25.7574 17.7919C26.133 18.0086 26.7434 18.0094 27.118 17.7919L32.304 14.7779C32.8557 14.4574 32.8513 13.9352 32.296 13.6144Z" fill="#4C5671"/>
</g>
<defs>
<clipPath id="clip0">
<rect width="46.9988" height="46.9988" fill="white" transform="translate(0 0.67627)"/>
</clipPath>
</defs>
</svg>
