<svg id="Layer_16" fill="#9590B5" enable-background="new 0 0 512 512" height="512" viewBox="0 0 512 512" width="512" xmlns="http://www.w3.org/2000/svg">
<path d="m499.08 438.603h-33.371v-18.655c0-4.543-3.683-8.227-8.227-8.227s-8.227 3.683-8.227 8.227v18.655h-74.281v-18.655c0-4.543-3.683-8.227-8.227-8.227-4.543 0-8.227 3.683-8.227 8.227v18.655h-74.282v-18.655c0-4.543-3.683-8.227-8.227-8.227-4.543 0-8.227 3.683-8.227 8.227v18.655h-74.281v-18.655c0-4.543-3.683-8.227-8.227-8.227-4.543 0-8.227 3.683-8.227 8.227v18.655h-74.282v-18.655c0-4.543-3.683-8.227-8.227-8.227-4.543 0-8.227 3.683-8.227 8.227v18.655h-69.859v-53.223h17.615c4.543 0 8.227-3.683 8.227-8.227 0-4.543-3.683-8.227-8.227-8.227h-17.615v-50.103h17.615c4.543 0 8.227-3.683 8.227-8.227s-3.683-8.227-8.227-8.227h-17.615v-50.103h17.615c4.543 0 8.227-3.683 8.227-8.227s-3.683-8.227-8.227-8.227h-17.615v-50.103h17.615c4.543 0 8.227-3.683 8.227-8.227 0-4.543-3.683-8.227-8.227-8.227h-17.615v-50.103h17.615c4.543 0 8.227-3.683 8.227-8.227s-3.683-8.227-8.227-8.227h-17.615v-37.528c0-4.543-3.683-8.227-8.227-8.227s-8.227 3.684-8.227 8.227v381.66c0 4.543 3.683 8.227 8.227 8.227h490.853c4.543 0 8.227-3.683 8.227-8.227s-3.683-8.227-8.227-8.227zm4.876-109.792c-.339-.008-34.207-.907-60.843-14.225-26.871-13.436-52.791-56.471-106.146-56.471-.829 0-1.628.125-2.383.353-.755-.228-1.554-.353-2.383-.353-1.359 0-2.696.037-4.021.092-1.472-5.276-2.747-10.801-3.77-16.601-12.57-71.288-32.359-144.771-83.824-149.274-.541-.047-1.074-.038-1.595.018-.515-.054-1.041-.064-1.576-.018-51.465 4.503-71.255 77.986-83.825 149.274-5.96 33.805-20.678 62.622-43.742 85.65-17.312 17.285-33.117 24.658-33.282 24.734-4.125 1.883-5.949 6.752-4.074 10.883 1.872 4.125 6.743 5.975 10.891 4.092.733-.333 18.187-8.373 37.537-27.515 17.752-17.561 40.641-48.296 48.874-94.987 16.064-91.103 37.361-132.967 69.054-135.74.052-.004.101-.016.152-.021.051.005.1.017.152.021 31.693 2.773 52.99 44.637 69.054 135.74.976 5.533 2.163 10.835 3.517 15.924-40.156 9.094-62.532 42.63-85.668 54.198-26.536 13.267-60.509 14.217-60.849 14.225-4.54.104-8.137 3.867-8.036 8.407.101 4.539 3.865 8.145 8.408 8.042 1.535-.034 37.933-1.008 67.836-15.958 26.617-13.308 46.969-45.764 83.259-53.183 10.742 29.382 27.032 50.098 40.408 63.331 19.35 19.142 36.803 27.182 37.537 27.515 4.155 1.886 9.022.027 10.891-4.092 1.878-4.138.046-9.014-4.092-10.891-.532-.242-45.573-21.319-67.792-77.545.326-.057.647-.128.959-.222.755.228 1.554.353 2.383.353 46.637 0 68.507 39.593 98.787 54.733 29.902 14.951 66.301 15.924 67.836 15.958 4.539.103 8.307-3.499 8.408-8.042.101-4.539-3.5-8.303-8.042-8.405z"/>
</svg>