<svg width="20" height="20" viewBox="0 0 20 20" fill="none" xmlns="http://www.w3.org/2000/svg">
<g clip-path="url(#clip0)">
<path d="M17.5 20C16.1217 20 15 18.8783 15 17.5C15 16.1217 16.1217 15 17.5 15C18.8783 15 20 16.1217 20 17.5C20 18.8783 18.8783 20 17.5 20ZM17.5 16.25C16.8108 16.25 16.25 16.8108 16.25 17.5C16.25 18.1892 16.8108 18.75 17.5 18.75C18.1892 18.75 18.75 18.1892 18.75 17.5C18.75 16.8108 18.1892 16.25 17.5 16.25Z" fill="#9590B5"/>
<path d="M9.79102 19.375C9.44602 19.375 9.16602 19.095 9.16602 18.75V17.9167C9.16602 17.3425 9.63352 16.875 10.2077 16.875H15.416C15.761 16.875 16.041 17.155 16.041 17.5C16.041 17.845 15.761 18.125 15.416 18.125H10.416V18.75C10.416 19.095 10.136 19.375 9.79102 19.375Z" fill="#9590B5"/>
<path d="M11.459 19.375C11.114 19.375 10.834 19.095 10.834 18.75V17.5C10.834 17.155 11.114 16.875 11.459 16.875C11.804 16.875 12.084 17.155 12.084 17.5V18.75C12.084 19.095 11.804 19.375 11.459 19.375Z" fill="#9590B5"/>
<path d="M6.875 16.6665H1.875C0.840833 16.6665 0 15.8249 0 14.7915V7.70819C0 6.67486 0.840833 5.83319 1.875 5.83319H11.4583C12.4925 5.83319 13.3333 6.67486 13.3333 7.70819V14.3749C13.3333 14.7199 13.0533 14.9999 12.7083 14.9999C12.3633 14.9999 12.0833 14.7199 12.0833 14.3749V7.70819C12.0833 7.36402 11.8033 7.08319 11.4583 7.08319H1.875C1.53 7.08319 1.25 7.36402 1.25 7.70819V14.7915C1.25 15.1357 1.53 15.4165 1.875 15.4165H6.875C7.22 15.4165 7.5 15.6965 7.5 16.0415C7.5 16.3865 7.22 16.6665 6.875 16.6665Z" fill="#9590B5"/>
<path d="M10.2083 7.08333C9.86333 7.08333 9.58333 6.80333 9.58333 6.45833V4.16667C9.58333 2.55833 8.275 1.25 6.66667 1.25C5.05833 1.25 3.75 2.55833 3.75 4.16667V6.45833C3.75 6.80333 3.47 7.08333 3.125 7.08333C2.78 7.08333 2.5 6.80333 2.5 6.45833V4.16667C2.5 1.86917 4.36917 0 6.66667 0C8.96417 0 10.8333 1.86917 10.8333 4.16667V6.45833C10.8333 6.80333 10.5533 7.08333 10.2083 7.08333Z" fill="#9590B5"/>
</g>
<defs>
<clipPath id="clip0">
<rect width="20" height="20" fill="white"/>
</clipPath>
</defs>
</svg>
