<svg width="15" height="15" viewBox="0 0 15 15" fill="none" xmlns="http://www.w3.org/2000/svg">
<path d="M13.7304 3.327L13.506 3.39814L12.3109 3.50461L11.9734 4.04367L11.7284 3.96584L10.7773 3.10832L10.6393 2.66237L10.4546 2.18681L9.85677 1.65062L9.15156 1.51263L9.13532 1.8354L9.82621 2.50958L10.1643 2.90778L9.78419 3.10641L9.4748 3.01521L9.01118 2.82184L9.02694 2.44799L8.41865 2.19779L8.21668 3.07681L7.60362 3.21575L7.66426 3.7061L8.46305 3.85985L8.60104 3.07633L9.26042 3.17373L9.56695 3.35326H10.0587L10.3953 4.02744L11.2877 4.93271L11.2223 5.2846L10.5028 5.19292L9.25946 5.82079L8.36422 6.89461L8.24772 7.37016H7.92638L7.32764 7.09419L6.74609 7.37016L6.89077 7.9837L7.14382 7.69197L7.58882 7.67812L7.55778 8.22912L7.92638 8.33702L8.29451 8.75051L8.89564 8.58148L9.58223 8.68987L10.3796 8.90425L10.7778 8.95104L11.4529 9.71737L12.7559 10.4837L11.9132 12.0937L11.0237 12.5072L10.6861 13.4273L9.39888 14.2867L9.26185 14.7823C12.5525 13.9897 15.0005 11.0337 15.0005 7.49955C14.9995 5.95591 14.5316 4.51922 13.7304 3.327Z" fill="#9590B5"/>
<path d="M8.36282 11.4195L7.8166 10.4068L8.31794 9.3621L7.8166 9.21218L7.25367 8.64686L6.00654 8.36707L5.59258 7.50095V8.01518H5.41018L4.33541 6.55796V5.36096L3.5476 4.07992L2.29664 4.3029H1.45392L1.02993 4.02501L1.5709 3.59625L1.03136 3.72087C0.381059 4.83145 0.00195312 6.12012 0.00195312 7.50047C0.00195312 11.6415 3.359 15 7.50052 15C7.81947 15 8.1322 14.9718 8.4416 14.9346L8.3633 14.026C8.3633 14.026 8.70755 12.6767 8.70755 12.6308C8.70707 12.5845 8.36282 11.4195 8.36282 11.4195Z" fill="#9590B5"/>
<path d="M2.78823 2.41835L4.12035 2.23262L4.73437 1.89601L5.42526 2.09511L6.52916 2.034L6.90731 1.43955L7.45878 1.53027L8.79806 1.4047L9.16714 0.997899L9.68758 0.650306L10.4238 0.761077L10.6922 0.720493C9.72243 0.264037 8.64336 0 7.49984 0C5.1722 0 3.09094 1.06092 1.7168 2.7268H1.72062L2.78823 2.41835ZM7.81687 0.745798L8.58273 0.324198L9.07451 0.608289L8.36262 1.15021L7.68271 1.21849L7.37665 1.01986L7.81687 0.745798ZM5.54844 0.807391L5.88649 0.948243L6.3291 0.807391L6.57022 1.22517L5.54844 1.49351L5.05713 1.20607C5.05666 1.20607 5.53746 0.896677 5.54844 0.807391Z" fill="#9590B5"/>
</svg>
