<svg width="11" height="27" viewBox="0 0 11 27" fill="none" xmlns="http://www.w3.org/2000/svg">
<path d="M3.92981 9.78944V11.2543H3.19736C2.79349 11.2543 2.46491 10.9258 2.46491 10.5219V8.32453H5.39472V2.46491H2.46491V1H1V10.5219C1 11.7335 1.98574 12.7193 3.19736 12.7193H3.92981V20.9716C3.92981 22.8684 4.89675 24.6914 6.45336 25.7291L6.85963 26L7.26589 25.7291C8.82245 24.6914 9.78944 22.8685 9.78944 20.9716V9.78944H3.92981ZM3.92981 3.92981V6.85963H2.46491V3.92981H3.92981ZM8.32453 20.9716C8.32453 22.2107 7.77339 23.4057 6.85963 24.2C5.94587 23.4057 5.39472 22.2107 5.39472 20.9716V16.8369V11.2543H8.32453V16.8369V20.9716Z" fill="#9590B5"/>
<path d="M5.39472 16.8369V20.9716C5.39472 22.2107 5.94587 23.4057 6.85963 24.2C7.77339 23.4057 8.32453 22.2107 8.32453 20.9716V16.8369M5.39472 16.8369V11.2543H8.32453V16.8369M5.39472 16.8369H8.32453M3.92981 9.78944V11.2543H3.19736C2.79349 11.2543 2.46491 10.9258 2.46491 10.5219V8.32453H5.39472V2.46491H2.46491V1H1V10.5219C1 11.7335 1.98574 12.7193 3.19736 12.7193H3.92981V20.9716C3.92981 22.8684 4.89675 24.6914 6.45336 25.7291L6.85963 26L7.26589 25.7291C8.82245 24.6914 9.78944 22.8685 9.78944 20.9716V9.78944H3.92981ZM3.92981 3.92981V6.85963H2.46491V3.92981H3.92981Z" stroke="#9590B5" stroke-width="0.5"/>
</svg>
