<svg width="25" height="25" viewBox="0 0 25 25" fill="#ffffff00" xmlns="http://www.w3.org/2000/svg">
<path d="M10.0617 20.1153C12.2963 20.1154 14.4669 19.3698 16.2298 17.9968L22.8806 24.6476C23.3774 25.1274 24.1691 25.1136 24.6489 24.6168C25.117 24.1321 25.117 23.3638 24.6489 22.8792L17.9981 16.2284C21.4053 11.8424 20.6119 5.52482 16.2259 2.11763C11.8399 -1.28957 5.52238 -0.496147 2.11519 3.88983C-1.29201 8.27581 -0.498589 14.5934 3.88739 18.0006C5.65315 19.3723 7.82572 20.1165 10.0617 20.1153ZM4.71786 4.71646C7.66922 1.76504 12.4543 1.76499 15.4057 4.71635C18.3571 7.66771 18.3572 12.4528 15.4058 15.4042C12.4545 18.3556 7.66938 18.3557 4.71797 15.4043C4.71791 15.4043 4.71791 15.4043 4.71786 15.4042C1.7665 12.4744 1.74911 7.70671 4.67897 4.75535C4.69191 4.74235 4.70486 4.7294 4.71786 4.71646Z" fill="#9590B5"/>
</svg>
