<svg width="11" height="10" viewBox="0 0 11 10" fill="none" xmlns="http://www.w3.org/2000/svg">
<g clip-path="url(#clip0)">
<path d="M5.43749 0C2.6875 0 0.4375 2.25 0.4375 4.99999C0.4375 7.74998 2.6875 9.99998 5.43749 9.99998C8.18748 9.99998 10.4375 7.74998 10.4375 4.99999C10.4375 2.25 8.1875 0 5.43749 0ZM5.43749 8.95C3.2875 8.95 1.4875 7.19999 1.4875 4.99999C1.4875 2.85 3.23751 1.05 5.43749 1.05C7.63747 1.05 9.38748 2.80001 9.38748 4.99999C9.3875 7.15 7.5875 8.95 5.43749 8.95Z" fill="white"/>
<path d="M4.43769 5.60061L3.33768 4.50062L2.6377 5.20062L4.43769 7.00062L5.13768 6.30062L7.98767 3.45062L7.28769 2.75061L4.43769 5.60061Z" fill="white"/>
</g>
<defs>
<clipPath id="clip0">
<rect width="10" height="10" fill="white" transform="translate(0.4375)"/>
</clipPath>
</defs>
</svg>
